opt_results/elbow_flexion_8
nRows=8
nColumns=15
endheader
time  TH_x  TH_y  TH_z  SC_y  SC_z  SC_x  AC_y  AC_z  AC_x  GH_y  GH_z  GH_yy  EL_x  PS_y
0.000000  0.000000  0.000000  0.000000  -21.244878  7.548297  12.757544  35.555582  -24.939708  -17.945793  24.964995  28.511398  15.257275  43.661602  83.465510
0.142857  0.000000  0.000000  0.000000  -21.244878  7.548297  12.757544  35.555582  -24.939708  -17.945793  24.964995  28.511398  15.257275  49.372387  82.241373
0.285714  0.000000  0.000000  0.000000  -21.244878  7.548297  12.757544  35.555582  -24.939708  -17.945793  24.964995  28.511398  15.257275  55.085040  81.193843
0.428571  0.000000  0.000000  0.000000  -21.244878  7.548297  12.757544  35.555582  -24.939708  -17.945793  24.964995  28.511398  15.257275  60.798054  80.679572
0.571429  0.000000  0.000000  0.000000  -21.244878  7.548297  12.757544  35.555582  -24.939708  -17.945793  24.964995  28.511398  15.257275  66.511155  80.248419
0.714286  0.000000  0.000000  0.000000  -21.244878  7.548297  12.757544  35.555582  -24.939708  -17.945793  24.964995  28.511398  15.257275  72.224155  80.062989
0.857143  0.000000  0.000000  0.000000  -21.244878  7.548297  12.757544  35.555582  -24.939708  -17.945793  24.964995  28.511398  15.257275  77.936707  79.918544
1.000000  0.000000  0.000000  0.000000  -21.244878  7.548297  12.757544  35.555582  -24.939708  -17.945793  24.964995  28.511398  15.257275  83.646223  79.180275
